<svg xmlns="http://www.w3.org/2000/svg" xml:space="preserve" width="54.3845mm" height="24.3233mm"
    version="1.1"
    style="shape-rendering:geometricPrecision; text-rendering:geometricPrecision; image-rendering:optimizeQuality; fill-rule:evenodd; clip-rule:evenodd"
    viewBox="0 0 1337.39 598.14"
    xmlns:xlink="http://www.w3.org/1999/xlink"
    xmlns:xodm="http://www.corel.com/coreldraw/odm/2003">
 <defs>
  <style type="text/css">
   <![CDATA[
    .fil0 {fill:#FEFEFE}
   ]]>
  </style>
 </defs>
 <g id="Capa_x0020_1">
  <metadata id="CorelCorpID_0Corel-Layer"/>
  <path class="fil0" d="M661.87 422.01c-41.26,17.02 -42.89,33.12 -130.82,59.83 -98.14,29.81 -227.21,33.39 -319.48,-13.11 -96.36,-48.56 -154.21,-139 -118.04,-242.01 52.3,-148.97 249.21,-177.07 384.45,-88.48 232.39,152.23 349.88,547.26 677.08,442.44 55.96,-17.93 83.91,-41.81 114.07,-75.69 22.17,-24.9 58.52,-86.86 68.25,-126.92 -20.46,16.88 -38.58,58 -111.53,101.56 -207.6,123.94 -358.7,-1.02 -480.14,-158.71l-93.64 -117.4c-83.44,-98.82 -180.39,-183.43 -331.66,-200.99 -294.1,-34.14 -400.93,285.15 -256.65,460.2 107.89,130.9 312.55,135.83 470.39,47.45 23.86,-13.36 46.76,-26.45 67,-40.06 14.12,-9.49 51.69,-34.93 60.7,-48.12z"/>
  <path class="fil0" d="M684.88 158.1c28.08,-10.49 45.95,-33.61 128.34,-62.03 44.95,-15.5 105.5,-25.26 155.63,-25.57 378.91,-2.32 367.37,393.98 71.67,412.72 -80.54,5.11 -100.38,-17.79 -150.44,-31.35 86.67,87.16 275.26,70.09 360.54,-8.15 131.72,-120.85 99.73,-339.9 -71.58,-413.61 -117.65,-50.63 -250.77,-32.76 -361.23,30.28 -30.24,17.26 -118.6,66.74 -132.92,97.7z"/>
  <path class="fil0" d="M888.21 564.17c-6.86,-2.35 -11.98,-7.48 -19.17,-13.18 -6.53,-5.18 -14.02,-9.78 -20.62,-14.92l-37.73 -33.55c-90.22,-83.88 -99.09,-116.92 -163.38,-186.89l-101.15 -109.78c-61.15,-59.71 -153.74,-106.48 -245.97,-104.93 -11.53,0.19 -20.56,0.16 -31.98,2.15l-24.36 7.3c-0.5,-0.82 -1.88,0.84 -2.79,1.32 146.05,0.07 162.7,20.76 253.7,91.93l68.15 67.55c6.24,7.41 10.04,13.17 15.99,19.97l113.73 129.19c15.19,13.54 22.85,20.09 35.19,32.8 7.05,7.25 9,12.17 16.78,18.85 28.42,24.42 112.18,88.8 143.6,92.19z"/>
 </g>
</svg>